<?xml version="1.0" encoding="UTF-8"?>
<svg width="124px" height="70px" viewBox="0 0 124 70" version="1.1" xmlns="http://www.w3.org/2000/svg" xmlns:xlink="http://www.w3.org/1999/xlink">
    <!-- Generator: sketchtool 63.1 (101010) - https://sketch.com -->
    <title>E8494568-C84A-4349-8BBF-C2DD24BECA1F</title>
    <desc>Created with sketchtool.</desc>
    <g id="April-8-2020" stroke="none" stroke-width="1" fill="none" fill-rule="evenodd">
        <g id="Desktop---Your-Videos---Private" transform="translate(-158.000000, -251.000000)" fill-rule="nonzero">
            <g id="Video-1" transform="translate(104.000000, 238.000000)">
                <g id="Private" transform="translate(54.000000, 13.000000)">
                    <path d="M0,0 L124,0 L124,70 L0,70 L0,0 Z" id="Overlay" fill-opacity="0.2" fill="#000000"></path>
                    <g id="icon-private" transform="translate(55.000000, 27.000000)">
                        <g id="Icon" fill="#FFFFFF">
                            <path d="M12.5,7 L11.75,7 L11.75,4.75 C11.75,2.13125 9.61875,0 7,0 C4.38125,0 2.25,2.13125 2.25,4.75 L2.25,7 L1.5,7 C0.671875,7 0,7.671875 0,8.5 L0,14.5 C0,15.328125 0.671875,16 1.5,16 L12.5,16 C13.328125,16 14,15.328125 14,14.5 L14,8.5 C14,7.671875 13.328125,7 12.5,7 Z M9.25,7 L4.75,7 L4.75,4.75 C4.75,3.509375 5.759375,2.5 7,2.5 C8.240625,2.5 9.25,3.509375 9.25,4.75 L9.25,7 Z" id="Icon-Shape"></path>
                        </g>
                        <rect id="ViewBox" x="0" y="0" width="14" height="16"></rect>
                    </g>
                </g>
            </g>
        </g>
    </g>
</svg>