<?xml version="1.0" encoding="UTF-8"?>
<svg width="120px" height="114px" viewBox="0 0 120 114" version="1.1" xmlns="http://www.w3.org/2000/svg" xmlns:xlink="http://www.w3.org/1999/xlink">
    <!-- Generator: sketchtool 63.1 (101010) - https://sketch.com -->
    <title>DE77D98E-2C9B-4326-8E49-2A2DDA20C857</title>
    <desc>Created with sketchtool.</desc>
    <defs>
        <linearGradient x1="0.172624056%" y1="0%" x2="101.820469%" y2="100.999999%" id="linearGradient-1">
            <stop stop-color="#DC2EA6" offset="0%"></stop>
            <stop stop-color="#FEC912" offset="100%"></stop>
        </linearGradient>
    </defs>
    <g id="Track-Type-Page" stroke="none" stroke-width="1" fill="none" fill-rule="evenodd">
        <g id="Desktop---Song-or-Beat" transform="translate(-260.000000, -188.000000)">
            <g id="Beat-Card" transform="translate(152.000000, 128.000000)">
                <g id="beat" transform="translate(108.192593, 60.000000)">
                    <ellipse id="Oval" fill="url(#linearGradient-1)" cx="58.8148148" cy="56.9131455" rx="56.8148148" ry="56.9131455"></ellipse>
                    <g id="Beat" transform="translate(0.000000, 35.000000)" fill="#FFFFFF" fill-rule="nonzero">
                        <path d="M115.887654,22.8296686 L81.550929,22.8296686 L74.3013951,1.99321875 C73.8862827,0.800833627 72.7514432,0 71.476242,0 C70.2010407,0 69.0676944,0.800833627 68.6525821,1.99321875 L57.0816988,35.2485 L47.0085049,6.27959947 C46.5933926,5.08721435 45.4600463,4.28638072 44.1848451,4.28638072 C42.9096438,4.28638072 41.7762975,5.08721435 41.3611852,6.27959947 L35.6018747,22.8296686 L2.98641975,22.8296686 C1.33791605,22.8296686 0,24.1535559 0,25.7847742 C0,27.4159925 1.33791605,28.7398798 2.98641975,28.7398798 L37.731192,28.7398798 C39.0063932,28.7398798 40.1397395,27.9390462 40.5548519,26.7466611 L44.1833519,16.3210484 L54.2595321,45.2869938 C54.6746444,46.4808565 55.809484,47.2816901 57.083192,47.2816901 C58.3569,47.2816901 59.4917395,46.4808565 59.9068519,45.2884714 L71.476242,12.0331901 L76.5964586,26.7466611 C77.0100778,27.9390462 78.1449173,28.7398798 79.4201185,28.7398798 L115.887654,28.7398798 C117.536158,28.7398798 118.874074,27.4159925 118.874074,25.7847742 C118.874074,24.1535559 117.536158,22.8296686 115.887654,22.8296686 Z" id="Path"></path>
                    </g>
                </g>
            </g>
        </g>
    </g>
</svg>