<?xml version="1.0" encoding="UTF-8"?>
<svg width="40px" height="36px" viewBox="0 0 40 36" version="1.1" xmlns="http://www.w3.org/2000/svg" xmlns:xlink="http://www.w3.org/1999/xlink">
    <!-- Generator: sketchtool 63.1 (101010) - https://sketch.com -->
    <title>07713FD4-A5DE-4FB7-B56A-96CB89DB5710</title>
    <desc>Created with sketchtool.</desc>
    <g id="FINAL" stroke="none" stroke-width="1" fill="none" fill-rule="evenodd">
        <g id="Add-a-Link---V3" transform="translate(-70.000000, -490.000000)" fill="#D7D7D7" fill-rule="nonzero">
            <g id="Upload-Box" transform="translate(20.000000, 462.000000)">
                <g id="Upload-Container" transform="translate(15.000000, 28.000000)">
                    <g id="icon-add-photo" transform="translate(35.000000, 0.000000)">
                        <g id="Icon" transform="translate(0.441869, 0.222034)">
                            <path d="M35.2744289,8.40556901 L29.9496699,8.40556901 L26.8757553,5.0433414 L16.7973471,5.0433414 L16.7973471,8.40556901 L25.3975888,8.40556901 L28.4715033,11.7677966 L35.2744289,11.7677966 L35.2744289,31.9411622 L8.39867354,31.9411622 L8.39867354,16.811138 L5.03920413,16.811138 L5.03920413,31.9411622 C5.03920413,33.7903874 6.55096536,35.3033898 8.39867354,35.3033898 L35.2744289,35.3033898 C37.1221371,35.3033898 38.6338983,33.7903874 38.6338983,31.9411622 L38.6338983,11.7677966 C38.6338983,9.91857143 37.1221371,8.40556901 35.2744289,8.40556901 Z M13.4378777,21.8544794 C13.4378777,26.4943535 17.2004834,30.2600484 21.8365512,30.2600484 C26.472619,30.2600484 30.2352248,26.4943535 30.2352248,21.8544794 C30.2352248,17.2146053 26.472619,13.4489104 21.8365512,13.4489104 C17.2004834,13.4489104 13.4378777,17.2146053 13.4378777,21.8544794 Z M21.8365512,16.811138 C24.6081135,16.811138 26.8757553,19.0806416 26.8757553,21.8544794 C26.8757553,24.6283172 24.6081135,26.8978208 21.8365512,26.8978208 C19.0649889,26.8978208 16.7973471,24.6283172 16.7973471,21.8544794 C16.7973471,19.0806416 19.0649889,16.811138 21.8365512,16.811138 Z M8.39867354,8.40556901 L13.4378777,8.40556901 L13.4378777,5.0433414 L8.39867354,5.0433414 L8.39867354,0 L5.03920413,0 L5.03920413,5.0433414 L0,5.0433414 L0,8.40556901 L5.03920413,8.40556901 L5.03920413,13.4489104 L8.39867354,13.4489104 L8.39867354,8.40556901 Z" id="Icon-Shape"></path>
                        </g>
                    </g>
                </g>
            </g>
        </g>
    </g>
</svg>