<?xml version="1.0" encoding="UTF-8"?>
<svg width="34px" height="30px" viewBox="0 0 34 30" version="1.1" xmlns="http://www.w3.org/2000/svg" xmlns:xlink="http://www.w3.org/1999/xlink">
    <!-- Generator: sketchtool 63.1 (101010) - https://sketch.com -->
    <title>1128101D-34EB-4786-A58F-F27C4E15E51F</title>
    <desc>Created with sketchtool.</desc>
    <g id="FINAL-Copy" stroke="none" stroke-width="1" fill="none" fill-rule="evenodd">
        <g id="Desktop---Manage-Links---Edit-Multiple" transform="translate(-229.000000, -672.000000)" fill="#D7D7D7" fill-rule="nonzero">
            <g id="Link-1---Open" transform="translate(168.000000, 626.000000)">
                <g id="Thumnail" transform="translate(20.000000, 20.000000)">
                    <g id="Upload-Container" transform="translate(12.000000, 26.000000)">
                        <g id="ic-outline-add-a-photo" transform="translate(29.546000, 0.000000)">
                            <g id="Icon" transform="translate(0.376129, 0.187264)">
                                <path d="M30.0263478,7.0892692 L25.4937991,7.0892692 L22.8772174,4.25356152 L14.2982609,4.25356152 L14.2982609,7.0892692 L21.6189704,7.0892692 L24.2355522,9.92497688 L30.0263478,9.92497688 L30.0263478,26.9392229 L7.14913043,26.9392229 L7.14913043,14.1785384 L4.28947826,14.1785384 L4.28947826,26.9392229 C4.28947826,28.4988622 5.57632174,29.7749306 7.14913043,29.7749306 L30.0263478,29.7749306 C31.5991565,29.7749306 32.886,28.4988622 32.886,26.9392229 L32.886,9.92497688 C32.886,8.36533765 31.5991565,7.0892692 30.0263478,7.0892692 Z M11.4386087,18.4320999 C11.4386087,22.3453765 14.6414191,25.5213691 18.5877391,25.5213691 C22.5340591,25.5213691 25.7368696,22.3453765 25.7368696,18.4320999 C25.7368696,14.5188233 22.5340591,11.3428307 18.5877391,11.3428307 C14.6414191,11.3428307 11.4386087,14.5188233 11.4386087,18.4320999 Z M18.5877391,14.1785384 C20.9469522,14.1785384 22.8772174,16.0926411 22.8772174,18.4320999 C22.8772174,20.7715587 20.9469522,22.6856614 18.5877391,22.6856614 C16.2285261,22.6856614 14.2982609,20.7715587 14.2982609,18.4320999 C14.2982609,16.0926411 16.2285261,14.1785384 18.5877391,14.1785384 Z M7.14913043,7.0892692 L11.4386087,7.0892692 L11.4386087,4.25356152 L7.14913043,4.25356152 L7.14913043,0 L4.28947826,0 L4.28947826,4.25356152 L0,4.25356152 L0,7.0892692 L4.28947826,7.0892692 L4.28947826,11.3428307 L7.14913043,11.3428307 L7.14913043,7.0892692 Z" id="Icon-Shape"></path>
                            </g>
                        </g>
                    </g>
                </g>
            </g>
        </g>
    </g>
</svg>