<?xml version="1.0" encoding="UTF-8"?>
<svg width="49px" height="44px" viewBox="0 0 49 44" version="1.1" xmlns="http://www.w3.org/2000/svg" xmlns:xlink="http://www.w3.org/1999/xlink">
    <!-- Generator: sketchtool 63.1 (101010) - https://sketch.com -->
    <title>AB5F52EA-EF13-4D6D-92E9-69F996C72BA7</title>
    <desc>Created with sketchtool.</desc>
    <g id="FINAL" stroke="none" stroke-width="1" fill="none" fill-rule="evenodd">
        <g id="Desktop---Add-a-Link---V3" transform="translate(-850.000000, -261.000000)" fill="#D7D7D7" fill-rule="nonzero">
            <g id="Add-Artwork" transform="translate(770.000000, 199.000000)">
                <g id="icon-add-photo-large" transform="translate(80.230000, 62.000000)">
                    <g id="Icon" transform="translate(0.541393, 0.273331)">
                        <path d="M43.2193736,10.3475232 L36.6953062,10.3475232 L32.9290465,6.2085139 L20.5806541,6.2085139 L20.5806541,10.3475232 L31.117949,10.3475232 L34.8842087,14.4865324 L43.2193736,14.4865324 L43.2193736,39.320588 L10.290327,39.320588 L10.290327,20.6950463 L6.17419622,20.6950463 L6.17419622,39.320588 C6.17419622,41.5970431 8.02645509,43.4595973 10.290327,43.4595973 L43.2193736,43.4595973 C45.4832455,43.4595973 47.3355044,41.5970431 47.3355044,39.320588 L47.3355044,14.4865324 C47.3355044,12.2100773 45.4832455,10.3475232 43.2193736,10.3475232 Z M16.4645233,26.9035602 C16.4645233,32.615393 21.0745898,37.2510834 26.7548503,37.2510834 C32.4351108,37.2510834 37.0451773,32.615393 37.0451773,26.9035602 C37.0451773,21.1917274 32.4351108,16.5560371 26.7548503,16.5560371 C21.0745898,16.5560371 16.4645233,21.1917274 16.4645233,26.9035602 Z M26.7548503,20.6950463 C30.1506582,20.6950463 32.9290465,23.4888776 32.9290465,26.9035602 C32.9290465,30.3182429 30.1506582,33.1120741 26.7548503,33.1120741 C23.3590424,33.1120741 20.5806541,30.3182429 20.5806541,26.9035602 C20.5806541,23.4888776 23.3590424,20.6950463 26.7548503,20.6950463 Z M10.290327,10.3475232 L16.4645233,10.3475232 L16.4645233,6.2085139 L10.290327,6.2085139 L10.290327,0 L6.17419622,0 L6.17419622,6.2085139 L0,6.2085139 L0,10.3475232 L6.17419622,10.3475232 L6.17419622,16.5560371 L10.290327,16.5560371 L10.290327,10.3475232 Z" id="Icon-Shape"></path>
                    </g>
                </g>
            </g>
        </g>
    </g>
</svg>