<?xml version="1.0" encoding="UTF-8"?>
<svg width="21px" height="19px" viewBox="0 0 21 19" version="1.1" xmlns="http://www.w3.org/2000/svg" xmlns:xlink="http://www.w3.org/1999/xlink">
    <!-- Generator: sketchtool 63.1 (101010) - https://sketch.com -->
    <title>C4668505-AC1F-4249-86B2-8BAE94F9CD24</title>
    <desc>Created with sketchtool.</desc>
    <g id="FINAL" stroke="none" stroke-width="1" fill="none" fill-rule="evenodd">
        <g id="Desktop---Add-A-Link---Filled-Out---V3" transform="translate(-957.000000, -388.000000)" fill-rule="nonzero">
            <g id="Artwork" transform="translate(770.000000, 194.000000)">
                <g id="Thumbnail">
                    <g id="icon-photo-camera" transform="translate(185.000000, 192.000000)">
                        <g id="Icon" transform="translate(2.073334, 2.073334)" fill="#FFFFFF">
                            <circle id="Icon-Oval" cx="10.3666719" cy="10.3666719" r="3.317335"></circle>
                            <path d="M7.25667031,0 L5.35956936,2.07333437 L2.07333437,2.07333437 C0.933000468,2.07333437 0,3.00633484 0,4.14666875 L0,16.586675 C0,17.7270089 0.933000468,18.6600094 2.07333437,18.6600094 L18.6600094,18.6600094 C19.8003433,18.6600094 20.7333437,17.7270089 20.7333437,16.586675 L20.7333437,4.14666875 C20.7333437,3.00633484 19.8003433,2.07333437 18.6600094,2.07333437 L15.3737744,2.07333437 L13.4766734,0 L7.25667031,0 Z M10.3666719,15.5500078 C7.50547043,15.5500078 5.18333593,13.2278733 5.18333593,10.3666719 C5.18333593,7.50547043 7.50547043,5.18333593 10.3666719,5.18333593 C13.2278733,5.18333593 15.5500078,7.50547043 15.5500078,10.3666719 C15.5500078,13.2278733 13.2278733,15.5500078 10.3666719,15.5500078 Z" id="Icon-Shape"></path>
                        </g>
                        <rect id="ViewBox" x="0" y="0" width="24.8800125" height="24.8800125"></rect>
                    </g>
                </g>
            </g>
        </g>
    </g>
</svg>