<?xml version="1.0" encoding="UTF-8"?>
<svg width="43px" height="34px" viewBox="0 0 43 34" version="1.1" xmlns="http://www.w3.org/2000/svg" xmlns:xlink="http://www.w3.org/1999/xlink">
    <!-- Generator: sketchtool 63.1 (101010) - https://sketch.com -->
    <title>587673E9-0FB1-4A35-97B4-ABB936CB74BD</title>
    <desc>Created with sketchtool.</desc>
    <g id="Page-1" stroke="none" stroke-width="1" fill="none" fill-rule="evenodd">
        <g id="Desktop---Add-A-Beat---Files" transform="translate(-853.000000, -260.000000)">
            <g id="Un-Tagged" transform="translate(104.000000, 237.000000)">
                <g id="icon-cloud-upload" transform="translate(746.000000, 15.000000)">
                    <polygon id="Path" points="0 0 49.7093407 0 49.7093407 49.9045873 0 49.9045873"></polygon>
                    <g id="Icon" transform="translate(3.400922, 8.367840)" fill="#DC2EA6" fill-rule="nonzero">
                        <path d="M21.5066582,14.2158189 C21.4348764,14.1237033 21.3248843,14.0698817 21.2084149,14.0698817 C21.0919454,14.0698817 20.9819534,14.1237033 20.9101715,14.2158189 L15.6080678,20.9528809 C15.5188807,21.0672637 15.5025611,21.2227526 15.5660416,21.3532975 C15.629522,21.4838423 15.7616548,21.5665183 15.9063112,21.5662055 L19.4047528,21.5662055 L19.4047528,33.0910032 C19.4047528,33.3001992 19.5751776,33.4713596 19.7834745,33.4713596 L22.6238872,33.4713596 C22.8321841,33.4713596 23.0026089,33.3001992 23.0026089,33.0910032 L23.0026089,21.57096 L26.5105186,21.57096 C26.827698,21.57096 27.0028568,21.204867 26.8087619,20.9576354 L21.5066582,14.2158189 Z" id="Icon-Path"></path>
                        <path d="M35.3820743,9.82745742 C33.2138926,4.0840764 27.6892899,0 21.2178829,0 C14.746476,0 9.22187325,4.07932195 7.05369155,9.82270296 C2.99663541,10.8924552 0,14.6056842 0,19.0178179 C0,24.2714901 4.23694895,28.5267269 9.46330833,28.5267269 L11.3616508,28.5267269 C11.5699478,28.5267269 11.7403725,28.3555665 11.7403725,28.1463705 L11.7403725,25.2936978 C11.7403725,25.0845019 11.5699478,24.9133415 11.3616508,24.9133415 L9.46330833,24.9133415 C7.8679432,24.9133415 6.36725848,24.2762446 5.25002949,23.1209121 C4.13753451,21.9703342 3.54578186,20.420382 3.59785609,18.8133764 C3.64046229,17.5582004 4.06652419,16.3790957 4.83816964,15.3854147 C5.62875118,14.3727159 6.73651213,13.6357755 7.96735764,13.3077181 L9.76155167,12.8370271 L10.4195806,11.0968968 C10.8267064,10.0128811 11.394789,9.00018234 12.1096262,8.08257262 C12.8153349,7.17308213 13.651281,6.37358296 14.5902533,5.71009983 C16.535936,4.33606249 18.8272022,3.60863095 21.2178829,3.60863095 C23.6085636,3.60863095 25.8998299,4.33606249 27.8455126,5.71009983 C28.7875828,6.37572346 29.6207705,7.17447181 30.3261397,8.08257262 C31.0409769,9.00018234 31.6090594,10.0176356 32.0161852,11.0968968 L32.6694801,12.8322726 L34.4589401,13.3077181 C37.0247796,14.0018685 38.8189737,16.3458145 38.8189737,19.0178179 C38.8189737,20.5915424 38.2082849,22.0749322 37.100524,23.1874745 C36.0032088,24.29597 34.5098977,24.9174445 32.9535214,24.9133415 L31.0551789,24.9133415 C30.846882,24.9133415 30.6764572,25.0845019 30.6764572,25.2936978 L30.6764572,28.1463705 C30.6764572,28.3555665 30.846882,28.5267269 31.0551789,28.5267269 L32.9535214,28.5267269 C38.1798808,28.5267269 42.4168297,24.2714901 42.4168297,19.0178179 C42.4168297,14.6104386 39.4296624,10.9019641 35.3820743,9.82745742 Z" id="Icon-Path"></path>
                    </g>
                    <rect id="ViewBox" fill-rule="nonzero" x="0.905814652" y="0.836783989" width="48.2387476" height="48.5334714"></rect>
                </g>
            </g>
        </g>
    </g>
</svg>