<?xml version="1.0" encoding="UTF-8"?>
<svg width="35px" height="28px" viewBox="0 0 35 28" version="1.1" xmlns="http://www.w3.org/2000/svg" xmlns:xlink="http://www.w3.org/1999/xlink">
    <!-- Generator: sketchtool 63.1 (101010) - https://sketch.com -->
    <title>CD894114-054E-4181-97F5-D2268E077F27</title>
    <desc>Created with sketchtool.</desc>
    <g id="Page-1" stroke="none" stroke-width="1" fill="none" fill-rule="evenodd">
        <g id="Add-A-Beat---Files-2" transform="translate(-252.000000, -327.000000)">
            <g id="Track-Stems" transform="translate(10.000000, 306.000000)">
                <g id="icon-cloud-upload" transform="translate(240.000000, 15.000000)">
                    <polygon id="Path" points="0 0 39.7674725 0 39.7674725 39.9236698 0 39.9236698"></polygon>
                    <g id="ant-design:cloud-upload-outlined" transform="translate(0.665362, 0.669427)" fill-rule="nonzero">
                        <g id="Icon" transform="translate(2.055376, 6.024845)" fill="#DC2EA6">
                            <path d="M17.2053266,11.3726551 C17.1479011,11.2989626 17.0599075,11.2559054 16.9667319,11.2559054 C16.8735563,11.2559054 16.7855627,11.2989626 16.7281372,11.3726551 L12.4864543,16.7623047 C12.4151045,16.8538109 12.4020489,16.9782021 12.4528333,17.082638 C12.5036176,17.1870738 12.6093239,17.2532147 12.7250489,17.2529644 L15.5238022,17.2529644 L15.5238022,26.4728026 C15.5238022,26.6401594 15.6601421,26.7770876 15.8267796,26.7770876 L18.0991098,26.7770876 C18.2657473,26.7770876 18.4020871,26.6401594 18.4020871,26.4728026 L18.4020871,17.256768 L21.2084149,17.256768 C21.4621584,17.256768 21.6022854,16.9638936 21.4470095,16.7661083 L17.2053266,11.3726551 Z" id="Icon-Path"></path>
                            <path d="M28.3056594,7.86196593 C26.5711141,3.26726112 22.1514319,0 16.9743063,0 C11.7971808,0 7.3774986,3.26345756 5.64295324,7.85816237 C2.39730832,8.71396418 0,11.6845473 0,15.2142543 C0,19.4171921 3.38955916,22.8213815 7.57064667,22.8213815 L9.08932066,22.8213815 C9.25595821,22.8213815 9.39229802,22.6844532 9.39229802,22.5170964 L9.39229802,20.2349583 C9.39229802,20.0676015 9.25595821,19.9306732 9.08932066,19.9306732 L7.57064667,19.9306732 C6.29435456,19.9306732 5.09380679,19.4209957 4.20002359,18.4967297 C3.31002761,17.5762673 2.83662549,16.3363056 2.87828488,15.0507011 C2.91236983,14.0465603 3.25321935,13.1032766 3.87053571,12.3083318 C4.50300094,11.4981727 5.38920971,10.9086204 6.37388611,10.6461745 L7.80924133,10.2696217 L8.33566449,8.87751741 C8.66136515,8.01030491 9.11583118,7.20014587 9.68770094,6.4660581 C10.2522679,5.7384657 10.9210248,5.09886637 11.6722026,4.56807987 C13.2287488,3.46884999 15.0617618,2.88690476 16.9743063,2.88690476 C18.8868509,2.88690476 20.7198639,3.46884999 22.2764101,4.56807987 C23.0300662,5.10057877 23.6966164,5.73957745 24.2609117,6.4660581 C24.8327815,7.20014587 25.2872475,8.01410848 25.6129482,8.87751741 L26.1355841,10.2658181 L27.5671521,10.6461745 C29.6198237,11.2014948 31.0551789,13.0766516 31.0551789,15.2142543 C31.0551789,16.4732339 30.5666279,17.6599457 29.6804192,18.5499796 C28.8025671,19.436776 27.6079181,19.9339556 26.3628171,19.9306732 L24.8441431,19.9306732 C24.6775056,19.9306732 24.5411658,20.0676015 24.5411658,20.2349583 L24.5411658,22.5170964 C24.5411658,22.6844532 24.6775056,22.8213815 24.8441431,22.8213815 L26.3628171,22.8213815 C30.5439046,22.8213815 33.9334638,19.4171921 33.9334638,15.2142543 C33.9334638,11.6883509 31.5437299,8.7215713 28.3056594,7.86196593 Z" id="Icon-Path"></path>
                        </g>
                        <rect id="ViewBox" x="0.0592896863" y="0" width="38.590998" height="38.8267771"></rect>
                    </g>
                </g>
            </g>
        </g>
    </g>
</svg>