<?xml version="1.0" encoding="UTF-8"?>
<svg width="16px" height="16px" viewBox="0 0 16 16" version="1.1" xmlns="http://www.w3.org/2000/svg" xmlns:xlink="http://www.w3.org/1999/xlink">
    <!-- Generator: sketchtool 63.1 (101010) - https://sketch.com -->
    <title>25E85701-3D83-49E3-81B9-7D0725B6B2D0</title>
    <desc>Created with sketchtool.</desc>
    <g id="April-8-2020" stroke="none" stroke-width="1" fill="none" fill-rule="evenodd">
        <g id="Edit-Video-Information---Schedule" transform="translate(-134.000000, -622.000000)">
            <g id="Modal">
                <g id="Start-Time" transform="translate(20.000000, 587.000000)">
                    <g id="Field" transform="translate(0.000000, 23.000000)">
                        <g id="calendar" transform="translate(113.000000, 12.000000)">
                            <rect id="Rectangle-path" x="0" y="0" width="17" height="17"></rect>
                            <path d="M14.5537,2.1981 L13.7955,2.1981 L13.7955,3.8811 L11.1027,3.8811 L11.1027,2.1981 L6.222,2.1981 L6.222,3.8811 L3.5292,3.8811 L3.5292,2.1981 L2.77185,2.1981 C1.8462,2.1981 1.08885,2.95545 1.08885,3.8811 L1.08885,13.97995 C1.08885,14.9056 1.84705,15.66295 2.77185,15.66295 L14.5537,15.66295 C15.47935,15.66295 16.2367,14.9056 16.2367,13.97995 L16.2367,3.8811 C16.23755,2.95545 15.47935,2.1981 14.5537,2.1981 L14.5537,2.1981 Z M14.5537,13.97995 L2.77185,13.97995 L2.77185,7.2471 L14.5537,7.2471 L14.5537,13.97995 L14.5537,13.97995 Z M5.46465,0.51425 L4.28655,0.51425 L4.28655,3.37535 L5.46465,3.37535 L5.46465,0.51425 L5.46465,0.51425 Z M13.039,0.51425 L11.8609,0.51425 L11.8609,3.37535 L13.039,3.37535 L13.039,0.51425 L13.039,0.51425 Z" id="Shape" fill="#000000"></path>
                        </g>
                    </g>
                </g>
            </g>
        </g>
    </g>
</svg>