<?xml version="1.0" encoding="UTF-8"?>
<svg width="8px" height="15px" viewBox="0 0 8 15" version="1.1" xmlns="http://www.w3.org/2000/svg" xmlns:xlink="http://www.w3.org/1999/xlink">
    <!-- Generator: sketchtool 63.1 (101010) - https://sketch.com -->
    <title>225177AE-9665-418B-87E0-6E7EF37579B8</title>
    <desc>Created with sketchtool.</desc>
    <g id="Page-1" stroke="none" stroke-width="1" fill="none" fill-rule="evenodd">
        <g id="Desktop---Standard-License" transform="translate(-498.000000, -242.000000)" fill-rule="nonzero">
            <g id="Default-Price" transform="translate(168.000000, 227.000000)">
                <g id="Track-Price" transform="translate(315.000000, 0.000000)">
                    <g id="icon-dollar" transform="translate(15.000000, 15.000000)">
                        <g id="Icon" fill="#B7B7B7">
                            <path d="M7.91852679,9.91908482 C7.91852679,10.7728795 7.64090402,11.5080915 7.08565848,12.124721 C6.53041295,12.7413504 5.80915179,13.1222098 4.921875,13.2672991 L4.921875,14.7321429 C4.921875,14.8102679 4.89676339,14.874442 4.84654018,14.9246652 C4.79631696,14.9748884 4.73214286,15 4.65401786,15 L3.52399554,15 C3.45145089,15 3.38867188,14.9734933 3.33565848,14.9204799 C3.28264509,14.8674665 3.25613839,14.8046875 3.25613839,14.7321429 L3.25613839,13.2672991 C2.88783482,13.2170759 2.53208705,13.1305804 2.18889509,13.0078125 C1.84570312,12.8850446 1.5625,12.7608817 1.33928571,12.6353237 C1.11607143,12.5097656 0.909598214,12.3758371 0.719866071,12.2335379 C0.530133929,12.0912388 0.400390625,11.9866071 0.330636161,11.9196429 C0.260881696,11.8526786 0.212053571,11.8024554 0.184151786,11.7689732 C0.0892857143,11.6517857 0.0837053571,11.5373884 0.167410714,11.4257812 L1.02957589,10.2957589 C1.06863839,10.2399554 1.1328125,10.2064732 1.22209821,10.1953125 C1.30580357,10.1841518 1.37276786,10.2092634 1.42299107,10.2706473 L1.43973214,10.2873884 C2.0703125,10.8398438 2.74832589,11.1886161 3.47377232,11.3337054 C3.68024554,11.3783482 3.88671875,11.4006696 4.09319196,11.4006696 C4.54520089,11.4006696 4.94280134,11.280692 5.2859933,11.0407366 C5.62918527,10.8007812 5.80078125,10.4603795 5.80078125,10.0195312 C5.80078125,9.86328125 5.75892857,9.71540179 5.67522321,9.57589286 C5.59151786,9.43638393 5.49804688,9.31919643 5.39481027,9.22433036 C5.29157366,9.12946429 5.12834821,9.02483259 4.90513393,8.91043527 C4.68191964,8.79603795 4.49776786,8.70675223 4.35267857,8.64257812 C4.20758929,8.57840402 3.984375,8.48772321 3.68303571,8.37053571 C3.46540179,8.28125 3.2938058,8.21149554 3.16824777,8.16127232 C3.04268973,8.11104911 2.87109375,8.03710938 2.65345982,7.93945312 C2.43582589,7.84179688 2.26143973,7.75530134 2.13030134,7.67996652 C1.99916295,7.6046317 1.84151786,7.50558036 1.65736607,7.3828125 C1.47321429,7.26004464 1.32393973,7.14146205 1.20954241,7.02706473 C1.09514509,6.91266741 0.973772321,6.77594866 0.845424107,6.61690848 C0.717075893,6.4578683 0.618024554,6.29603795 0.548270089,6.13141741 C0.478515625,5.96679688 0.419921875,5.78125 0.372488839,5.57477679 C0.325055804,5.36830357 0.301339286,5.15066964 0.301339286,4.921875 C0.301339286,4.15178571 0.574776786,3.4765625 1.12165179,2.89620536 C1.66852679,2.31584821 2.38002232,1.94196429 3.25613839,1.77455357 L3.25613839,0.267857143 C3.25613839,0.1953125 3.28264509,0.132533482 3.33565848,0.0795200893 C3.38867188,0.0265066964 3.45145089,0 3.52399554,0 L4.65401786,0 C4.73214286,0 4.79631696,0.0251116071 4.84654018,0.0753348214 C4.89676339,0.125558036 4.921875,0.189732143 4.921875,0.267857143 L4.921875,1.74107143 C5.23995536,1.77455357 5.54827009,1.83872768 5.8468192,1.93359375 C6.1453683,2.02845982 6.38811384,2.1219308 6.5750558,2.2140067 C6.76199777,2.30608259 6.93917411,2.41071429 7.10658482,2.52790179 C7.27399554,2.64508929 7.3828125,2.72600446 7.43303571,2.77064732 C7.48325893,2.81529018 7.52511161,2.85435268 7.55859375,2.88783482 C7.65345982,2.98828125 7.66741071,3.09430804 7.60044643,3.20591518 L6.92243304,4.42801339 C6.87779018,4.51171875 6.81361607,4.55636161 6.72991071,4.56194196 C6.65178571,4.57868304 6.57645089,4.55915179 6.50390625,4.50334821 C6.48716518,4.48660714 6.44670759,4.453125 6.38253348,4.40290179 C6.31835938,4.35267857 6.20954241,4.27873884 6.05608259,4.18108259 C5.90262277,4.08342634 5.73939732,3.99414063 5.56640625,3.91322545 C5.39341518,3.83231027 5.18554688,3.75976563 4.94280134,3.69559152 C4.7000558,3.63141741 4.46149554,3.59933036 4.22712054,3.59933036 C3.69698661,3.59933036 3.26450893,3.71930804 2.9296875,3.95926339 C2.59486607,4.19921875 2.42745536,4.50892857 2.42745536,4.88839286 C2.42745536,5.03348214 2.45117187,5.16741071 2.49860491,5.29017857 C2.54603795,5.41294643 2.62834821,5.52873884 2.74553571,5.6375558 C2.86272321,5.74637277 2.97293527,5.83844866 3.07617188,5.91378348 C3.17940848,5.9891183 3.33565848,6.07561384 3.54492188,6.17327009 C3.75418527,6.27092634 3.92299107,6.34626116 4.05133929,6.39927455 C4.1796875,6.45228795 4.375,6.52901786 4.63727679,6.62946429 C4.93303571,6.74107143 5.15904018,6.82896205 5.31529018,6.89313616 C5.47154018,6.95731027 5.68359375,7.05496652 5.95145089,7.18610491 C6.21930804,7.3172433 6.42996652,7.43582589 6.58342634,7.54185268 C6.73688616,7.64787946 6.90987723,7.78738839 7.10239955,7.96037946 C7.29492188,8.13337054 7.44280134,8.31054688 7.54603795,8.49190848 C7.64927455,8.67327009 7.73716518,8.88671875 7.80970982,9.13225446 C7.88225446,9.37779018 7.91852679,9.64006696 7.91852679,9.91908482 Z" id="Icon-Path"></path>
                        </g>
                        <rect id="ViewBox" x="0" y="0" width="8.03571429" height="15"></rect>
                    </g>
                </g>
            </g>
        </g>
    </g>
</svg>