<?xml version="1.0" encoding="UTF-8"?>
<svg width="50px" height="50px" viewBox="0 0 50 50" version="1.1" xmlns="http://www.w3.org/2000/svg" xmlns:xlink="http://www.w3.org/1999/xlink">
    <!-- Generator: sketchtool 63.1 (101010) - https://sketch.com -->
    <title>5A950252-DE9C-4874-A9B9-0609E189017C</title>
    <desc>Created with sketchtool.</desc>
    <g id="FINAL-Copy" stroke="none" stroke-width="1" fill="none" fill-rule="evenodd">
        <g id="Desktop---Manage-Links---V3" transform="translate(-914.000000, -381.000000)">
            <g id="Link-2" transform="translate(168.000000, 357.000000)">
                <g id="icon-edit-link" transform="translate(746.000000, 24.000000)">
                    <rect id="Rectangle-Copy" fill="#F5F5F5" x="0" y="0" width="50" height="50" rx="25"></rect>
                    <g id="ic-baseline-edit" transform="translate(13.000000, 13.000000)" fill-rule="nonzero">
                        <g id="Icon" fill="#000000">
                            <path d="M3,17.25 L3,21 L6.75,21 L17.81,9.94 L14.06,6.19 L3,17.25 Z M20.71,7.04 C20.8972281,6.85315541 21.002444,6.59950947 21.002444,6.335 C21.002444,6.07049053 20.8972281,5.81684459 20.71,5.63 L18.37,3.29 C18.1831554,3.10277191 17.9295095,2.99755597 17.665,2.99755597 C17.4004905,2.99755597 17.1468446,3.10277191 16.96,3.29 L15.13,5.12 L18.88,8.87 L20.71,7.04 Z" id="Icon-Shape"></path>
                        </g>
                        <rect id="ViewBox" x="0" y="0" width="24" height="24"></rect>
                    </g>
                </g>
            </g>
        </g>
    </g>
</svg>