<?xml version="1.0" encoding="UTF-8"?>
<svg width="24px" height="24px" viewBox="0 0 24 24" version="1.1" xmlns="http://www.w3.org/2000/svg" xmlns:xlink="http://www.w3.org/1999/xlink">
    <!-- Generator: sketchtool 63.1 (101010) - https://sketch.com -->
    <title>4C43A3A2-5A4E-42EC-BCD7-8DAEA1B2918C</title>
    <desc>Created with sketchtool.</desc>
    <defs>
        <linearGradient x1="0%" y1="0%" x2="101.999998%" y2="100.999999%" id="linearGradient-1">
            <stop stop-color="#DC2EA6" offset="0%"></stop>
            <stop stop-color="#FEC912" offset="100%"></stop>
        </linearGradient>
    </defs>
    <g id="Marketing" stroke="none" stroke-width="1" fill="none" fill-rule="evenodd">
        <g id="Desktop---Add-A-Beat---Marketing-Links" transform="translate(-166.000000, -452.000000)" fill="url(#linearGradient-1)" fill-rule="nonzero">
            <g id="Email-Capture" transform="translate(104.000000, 425.000000)">
                <g id="Info" transform="translate(62.000000, 27.000000)">
                    <g id="envelope-open-regular">
                        <path d="M23.1837188,7.7116875 C22.9635469,7.52967187 17.9467031,3.49528125 16.8438281,2.61839062 C15.8077031,1.79020313 14.0361094,0 12,0 C9.97476562,0 8.2201875,1.76798437 7.15617188,2.61839062 C6.00946875,3.53010937 1.01226563,7.54940625 0.821015625,7.706625 C0.301227639,8.13403914 -2.49820997e-16,8.77165886 -2.49820997e-16,9.44460938 L-2.49820997e-16,21.75 C-2.49820997e-16,22.9926562 1.00734375,24 2.25,24 L21.75,24 C22.9926562,24 24,22.9926562 24,21.75 L24,9.44573437 C24,8.77493777 23.7006961,8.13912468 23.1837188,7.7116875 Z M21.75,21.46875 C21.75,21.6240801 21.6240801,21.75 21.46875,21.75 L2.53125,21.75 C2.37591991,21.75 2.25,21.6240801 2.25,21.46875 L2.25,9.57876562 C2.25,9.49378125 2.28825,9.41348437 2.35434375,9.36009375 C3.09825,8.7594375 7.45401562,5.256 8.55890625,4.37760938 C9.41039062,3.6975 10.8936563,2.25 12,2.25 C13.1106094,2.25 14.6182969,3.72042187 15.4410937,4.37760938 C16.5460781,5.25609375 20.9021719,8.76009375 21.64575,9.36117188 C21.7117485,9.41453121 21.75,9.49487945 21.75,9.57975 L21.75,21.46875 Z M20.2504219,12.670125 C20.4495937,12.9119531 20.4128438,13.2698906 20.168625,13.4661094 C18.8104219,14.5575 17.3901562,15.6972188 16.8438281,16.1315625 C15.7798125,16.9820156 14.0252344,18.75 12,18.75 C9.9631875,18.75 8.18967187,16.9576406 7.15617188,16.1315625 C6.62746875,15.7112344 5.19942188,14.5653281 3.83146875,13.4660156 C3.58725,13.26975 3.55054687,12.9118594 3.74967187,12.6700313 L4.46489062,11.8015313 C4.66073437,11.5637344 5.0113125,11.5276406 5.25140625,11.720625 C6.592875,12.7987969 7.9966875,13.9253906 8.55890625,14.3723906 C9.38170312,15.0295781 10.8893906,16.5 12,16.5 C13.1063437,16.5 14.5896562,15.0525 15.4410937,14.3723906 C16.0033125,13.9254375 17.4072187,12.7987969 18.7487344,11.7207656 C18.9888281,11.5278281 19.3394062,11.5639219 19.5352031,11.8017188 L20.2504219,12.670125 Z" id="Shape"></path>
                    </g>
                </g>
            </g>
        </g>
    </g>
</svg>