<?xml version="1.0" encoding="UTF-8"?>
<svg width="35px" height="35px" viewBox="0 0 35 35" version="1.1" xmlns="http://www.w3.org/2000/svg" xmlns:xlink="http://www.w3.org/1999/xlink">
    <!-- Generator: sketchtool 63.1 (101010) - https://sketch.com -->
    <title>F9BEC947-46DF-41CE-91F4-C489FF25E944</title>
    <desc>Created with sketchtool.</desc>
    <g id="FINAL-Copy" stroke="none" stroke-width="1" fill="none" fill-rule="evenodd">
        <g id="Desktop---Manage-Links---Edit-Multiple" transform="translate(-766.000000, -801.000000)">
            <g id="Link-1---Open" transform="translate(168.000000, 626.000000)">
                <g id="Buttons" transform="translate(18.000000, 160.000000)">
                    <g id="icon-visible" transform="translate(580.000000, 15.000000)">
                        <g id="Group-4">
                            <rect id="Rectangle-Copy" fill="#F2F2F2" x="0" y="0" width="35" height="35" rx="17.5"></rect>
                            <g id="icon-hidden" transform="translate(6.000000, 8.000000)" fill="#000000" fill-rule="nonzero">
                                <path d="M11.3114489,6.28208298 L14.5999596,9.57059362 L14.6156191,9.3983383 C14.6156191,7.67054894 13.2114936,6.2664234 11.4837043,6.2664234 L11.3114489,6.28208298 Z" id="Path"></path>
                                <path d="M11.4837043,4.17851277 C14.365066,4.17851277 16.7035787,6.51702553 16.7035787,9.39838723 C16.7035787,10.0717489 16.5678787,10.7137915 16.3329851,11.3036191 L19.3866021,14.3572362 C20.962983,13.0418319 22.2053255,11.3401745 22.9726447,9.39838723 C21.1613702,4.81536809 16.7088149,1.5686 11.4837532,1.5686 C10.0221766,1.5686 8.62328723,1.8295766 7.32354255,2.29936383 L9.57852128,4.54910638 C10.1683,4.31944894 10.8103426,4.17851277 11.4837043,4.17851277 Z" id="Path"></path>
                                <path d="M1.04395532,1.33365745 L3.42421064,3.71391277 L3.89923404,4.18893617 C2.17668085,5.53565957 0.814297872,7.32608723 0,9.3983383 C1.80608723,13.9813574 6.26382979,17.2281255 11.4837043,17.2281255 C13.1018766,17.2281255 14.6469383,16.914934 16.0615362,16.3459532 L16.5052404,16.7896574 L19.548434,19.8380383 L20.8794979,18.5122106 L2.37501915,0.00259361702 L1.04395532,1.33365745 Z M6.81715106,7.10161702 L8.43008723,8.71455319 C8.38310851,8.9390234 8.35178936,9.16344468 8.35178936,9.3983383 C8.35178936,11.1261277 9.75591489,12.5302532 11.4837043,12.5302532 C11.7185979,12.5302532 11.9430681,12.498934 12.1623021,12.4519553 L13.7752383,14.0648915 C13.0809809,14.4094021 12.3084745,14.6182128 11.4837043,14.6182128 C8.60234255,14.6182128 6.26382979,12.2797 6.26382979,9.3983383 C6.26382979,8.57361702 6.47264043,7.8010617 6.81715106,7.10161702 Z" id="Shape"></path>
                            </g>
                        </g>
                    </g>
                </g>
            </g>
        </g>
    </g>
</svg>