<?xml version="1.0" encoding="UTF-8"?>
<svg width="35px" height="35px" viewBox="0 0 35 35" version="1.1" xmlns="http://www.w3.org/2000/svg" xmlns:xlink="http://www.w3.org/1999/xlink">
    <!-- Generator: sketchtool 63.1 (101010) - https://sketch.com -->
    <title>834F404E-30EE-4ABC-9183-8A3F2355E730</title>
    <desc>Created with sketchtool.</desc>
    <g id="FINAL-Copy" stroke="none" stroke-width="1" fill="none" fill-rule="evenodd">
        <g id="Desktop---Manage-Links---Edit-Multiple" transform="translate(-766.000000, -444.000000)">
            <g id="Link-1---Open" transform="translate(168.000000, 245.000000)">
                <g id="Buttons" transform="translate(18.000000, 184.000000)">
                    <g id="icon-visible" transform="translate(580.000000, 15.000000)">
                        <g id="Group-4">
                            <rect id="Rectangle-Copy" fill="#F2F2F2" x="0" y="0" width="35" height="35" rx="17.5"></rect>
                            <g id="eye" transform="translate(6.000000, 10.000000)" fill="#000000" fill-rule="nonzero">
                                <path d="M11.4285714,4.74164134 C9.74728571,4.74164134 8.38095238,6.10797467 8.38095238,7.78926039 C8.38095238,9.4705461 9.74728571,10.8368794 11.4285714,10.8368794 C13.1098571,10.8368794 14.4761905,9.4705461 14.4761905,7.78926039 C14.4761905,6.10797467 13.1098095,4.74164134 11.4285714,4.74164134 Z" id="Path"></path>
                                <path d="M11.4285714,0 C6.23375738,0 1.79741628,3.23831667 0,7.80952381 C1.79741628,12.3806821 6.23375738,15.6190476 11.4285714,15.6190476 C16.6285478,15.6190476 21.0597266,12.3806821 22.8571429,7.80952381 C21.0597266,3.23831667 16.6285478,0 11.4285714,0 Z M11.4285714,13.0158405 C8.56104303,13.0158405 6.23375738,10.6833798 6.23375738,7.809475 C6.23375738,4.93557024 8.56104303,2.60315833 11.4285714,2.60315833 C14.2960998,2.60315833 16.6233855,4.93561905 16.6233855,7.80952381 C16.6233855,10.6834286 14.2960998,13.0158405 11.4285714,13.0158405 Z" id="Shape"></path>
                            </g>
                        </g>
                    </g>
                </g>
            </g>
        </g>
    </g>
</svg>