<?xml version="1.0" encoding="UTF-8"?>
<svg width="30px" height="30px" viewBox="0 0 30 30" version="1.1" xmlns="http://www.w3.org/2000/svg" xmlns:xlink="http://www.w3.org/1999/xlink">
    <!-- Generator: sketchtool 63.1 (101010) - https://sketch.com -->
    <title>57018E77-67CD-4324-92D8-BB1501346908</title>
    <desc>Created with sketchtool.</desc>
    <g id="Page-1" stroke="none" stroke-width="1" fill="none" fill-rule="evenodd">
        <g id="Beat-Pack---Create" transform="translate(-424.000000, -1003.000000)" fill-rule="nonzero">
            <g id="Tracks" transform="translate(168.000000, 879.000000)">
                <g id="icomoon-free:music" transform="translate(256.000000, 124.000000)">
                    <g id="Icon" fill="#D1D1D1">
                        <path d="M28.125,0 L30,0 L30,21.5625 C30,24.151875 27.061875,26.25 23.4375,26.25 C19.813125,26.25 16.875,24.151875 16.875,21.5625 C16.875,18.973125 19.813125,16.875 23.4375,16.875 C25.273125,16.875 26.934375,17.413125 28.125,18.283125 L28.125,7.5 L13.125,10.83375 L13.125,25.3125 C13.125,27.901875 10.186875,30 6.5625,30 C2.938125,30 0,27.901875 0,25.3125 C0,22.723125 2.938125,20.625 6.5625,20.625 C8.398125,20.625 10.059375,21.163125 11.25,22.033125 L11.25,3.75 L28.125,0 Z" id="Icon-Path"></path>
                    </g>
                    <rect id="ViewBox" x="0" y="0" width="30" height="30"></rect>
                </g>
            </g>
        </g>
    </g>
</svg>