<?xml version="1.0" encoding="UTF-8"?>
<svg width="14px" height="14px" viewBox="0 0 14 14" version="1.1" xmlns="http://www.w3.org/2000/svg" xmlns:xlink="http://www.w3.org/1999/xlink">
    <!-- Generator: sketchtool 63.1 (101010) - https://sketch.com -->
    <title>DAD62086-69FC-488D-B9B1-18D85938FB46</title>
    <desc>Created with sketchtool.</desc>
    <g id="Page-1" stroke="none" stroke-width="1" fill="none" fill-rule="evenodd">
        <g id="Desktop---Add-A-Beat---Beat-Info---Add-Collaborator-2" transform="translate(-351.000000, -763.000000)">
            <g id="Form" transform="translate(349.000000, 629.000000)">
                <g id="Collaborators">
                    <g id="Add-Collaborator" transform="translate(1.000000, 133.000000)">
                        <g id="icon-plus">
                            <rect id="Rectangle-path" x="0" y="0" width="16" height="16"></rect>
                            <path d="M8.3352,1.292 C4.66,1.292 1.6816,4.2712 1.6816,7.9456 C1.6816,11.62 4.6608,14.5992 8.3352,14.5992 C12.0096,14.5992 14.988,11.62 14.988,7.9456 C14.988,4.2712 12.0096,1.292 8.3352,1.292 L8.3352,1.292 Z M9.1448,8.7552 L9.1448,11.9456 L7.5256,11.9456 L7.5256,8.7552 L4.336,8.7552 L4.336,7.136 L7.5256,7.136 L7.5256,3.9456 L9.1448,3.9456 L9.1448,7.1352 L12.3344,7.1352 L12.3352,8.7544 L9.1448,8.7544 L9.1448,8.7552 Z" id="Shape" fill="#000000"></path>
                        </g>
                    </g>
                </g>
            </g>
        </g>
    </g>
</svg>