<?xml version="1.0" encoding="UTF-8"?>
<svg width="32px" height="31px" viewBox="0 0 32 31" version="1.1" xmlns="http://www.w3.org/2000/svg" xmlns:xlink="http://www.w3.org/1999/xlink">
    <!-- Generator: sketchtool 63.1 (101010) - https://sketch.com -->
    <title>4D0957DF-84BD-48FE-AF05-4E963913D42B</title>
    <desc>Created with sketchtool.</desc>
    <defs>
        <path d="M11.9205298,23.2420034 C10.3062914,23.2420034 8.76189983,22.9370791 7.28735513,22.3272306 C5.81281043,21.7173822 4.54392591,20.8967218 3.48070157,19.8652497 C2.41747724,18.8337776 1.57155422,17.6027871 0.942932533,16.1722783 C0.314310844,14.7417695 0,13.2434998 0,11.6774691 C0,10.1114385 0.314310844,8.61316872 0.942932533,7.18265993 C1.57155422,5.75215114 2.41747724,4.52116068 3.48070157,3.48968855 C4.54392591,2.45821642 5.81281043,1.63755612 7.28735513,1.02770763 C8.76189983,0.417859147 10.3062914,0.112934905 11.9205298,0.112934905 C13.5347682,0.112934905 15.0791598,0.417859147 16.5537045,1.02770763 C18.0282492,1.63755612 19.2971337,2.45821642 20.360358,3.48968855 C21.4235824,4.52116068 22.2695054,5.75215114 22.8981271,7.18265993 C23.5267488,8.61316872 23.8410596,10.1114385 23.8410596,11.6774691 C23.8410596,13.2434998 23.5267488,14.7417695 22.8981271,16.1722783 C22.2695054,17.6027871 21.4235824,18.8337776 20.360358,19.8652497 C19.2971337,20.8967218 18.0282492,21.7173822 16.5537045,22.3272306 C15.0791598,22.9370791 13.5347682,23.2420034 11.9205298,23.2420034 Z M17.415149,8.44753086 C17.7255795,8.16142911 17.8807947,7.8075664 17.8807947,7.38594276 C17.8807947,6.96431912 17.7294599,6.60669192 17.4267901,6.31306117 C17.1241204,6.01943042 16.7554843,5.87261504 16.3208816,5.87261504 C15.886279,5.87261504 15.5215232,6.02319491 15.2266142,6.32435466 L11.8972475,9.53170595 L8.59116308,6.32435466 C8.29625414,6.02319491 7.93149834,5.87261504 7.4968957,5.87261504 C7.06229305,5.87261504 6.69365687,6.01943042 6.39098717,6.31306117 C6.08831747,6.60669192 5.93698262,6.96431912 5.93698262,7.38594276 C5.93698262,7.8075664 6.09219785,8.16142911 6.40262831,8.44753086 L9.70871275,11.6774691 L6.40262831,14.8848204 C6.09219785,15.1709222 5.93698262,15.5247849 5.93698262,15.9464085 C5.93698262,16.3680322 6.08831747,16.7256594 6.39098717,17.0192901 C6.69365687,17.3129209 7.06229305,17.4597363 7.4968957,17.4597363 C7.93149834,17.4597363 8.29625414,17.3091564 8.59116308,17.0079966 L11.8972475,13.8006453 L15.2266142,17.0079966 C15.5215232,17.3091564 15.886279,17.4597363 16.3208816,17.4597363 C16.7554843,17.4597363 17.1241204,17.3129209 17.4267901,17.0192901 C17.7294599,16.7256594 17.8807947,16.3680322 17.8807947,15.9464085 C17.8807947,15.5247849 17.7255795,15.1709222 17.415149,14.8848204 L14.1090646,11.6774691 L17.415149,8.44753086 Z" id="path-1"></path>
        <filter x="-25.2%" y="-25.9%" width="150.3%" height="151.9%" filterUnits="objectBoundingBox" id="filter-2">
            <feOffset dx="0" dy="0" in="SourceAlpha" result="shadowOffsetOuter1"></feOffset>
            <feGaussianBlur stdDeviation="2" in="shadowOffsetOuter1" result="shadowBlurOuter1"></feGaussianBlur>
            <feColorMatrix values="0 0 0 0 0   0 0 0 0 0   0 0 0 0 0  0 0 0 0.3 0" type="matrix" in="shadowBlurOuter1"></feColorMatrix>
        </filter>
    </defs>
    <g id="FINAL" stroke="none" stroke-width="1" fill="none" fill-rule="evenodd">
        <g id="Desktop---Add-A-Link---Filled-Out---V3" transform="translate(-962.000000, -191.000000)" fill-rule="nonzero">
            <g id="Artwork" transform="translate(770.000000, 194.000000)">
                <g id="Thumbnail">
                    <g id="icon-remove" transform="translate(196.000000, 0.000000)">
                        <g id="Icon" transform="translate(0.000000, 1.192593)">
                            <g id="Icon-Shape">
                                <use fill="black" fill-opacity="1" filter="url(#filter-2)" xlink:href="#path-1"></use>
                                <use fill="#FFFFFF" xlink:href="#path-1"></use>
                            </g>
                        </g>
                        <rect id="ViewBox" x="0" y="0" width="23.8410596" height="23.8518519"></rect>
                    </g>
                </g>
            </g>
        </g>
    </g>
</svg>