<?xml version="1.0" encoding="UTF-8"?>
<svg width="16px" height="16px" viewBox="0 0 16 16" version="1.1" xmlns="http://www.w3.org/2000/svg" xmlns:xlink="http://www.w3.org/1999/xlink">
    <!-- Generator: sketchtool 63.1 (101010) - https://sketch.com -->
    <title>166CA6B7-8ADE-4FC1-9105-C47C33F2BF7D</title>
    <desc>Created with sketchtool.</desc>
    <g id="Page-1" stroke="none" stroke-width="1" fill="none" fill-rule="evenodd">
        <g id="Desktop---Add-A-Beat---Beat-Info" transform="translate(-362.000000, -585.000000)" fill-rule="nonzero">
            <g id="Form" transform="translate(349.000000, 217.000000)">
                <g id="Add-to-Beat-Pack" transform="translate(0.000000, 329.000000)">
                    <g id="Soundcloud-URL-Copy" transform="translate(0.000000, 26.000000)">
                        <g id="Input/Text/Filled">
                            <g id="icon-search" transform="translate(13.000000, 13.000000)">
                                <g id="Icon" fill="#B7B7B7">
                                    <path d="M15.78125,13.834375 L12.665625,10.71875 C12.525,10.578125 12.334375,10.5 12.134375,10.5 L11.625,10.5 C12.4875,9.396875 13,8.009375 13,6.5 C13,2.909375 10.090625,0 6.5,0 C2.909375,0 0,2.909375 0,6.5 C0,10.090625 2.909375,13 6.5,13 C8.009375,13 9.396875,12.4875 10.5,11.625 L10.5,12.134375 C10.5,12.334375 10.578125,12.525 10.71875,12.665625 L13.834375,15.78125 C14.128125,16.075 14.603125,16.075 14.89375,15.78125 L15.778125,14.896875 C16.071875,14.603125 16.071875,14.128125 15.78125,13.834375 Z M6.5,10.5 C4.290625,10.5 2.5,8.7125 2.5,6.5 C2.5,4.290625 4.2875,2.5 6.5,2.5 C8.709375,2.5 10.5,4.2875 10.5,6.5 C10.5,8.709375 8.7125,10.5 6.5,10.5 Z" id="Icon-Shape"></path>
                                </g>
                                <rect id="ViewBox" x="0" y="0" width="16" height="16"></rect>
                            </g>
                        </g>
                    </g>
                </g>
            </g>
        </g>
    </g>
</svg>