<?xml version="1.0" encoding="UTF-8"?>
<svg width="22px" height="24px" viewBox="0 0 22 24" version="1.1" xmlns="http://www.w3.org/2000/svg" xmlns:xlink="http://www.w3.org/1999/xlink">
    <!-- Generator: sketchtool 63.1 (101010) - https://sketch.com -->
    <title>69A7B7B8-7083-4C63-B07E-A9C68DFBCF7C</title>
    <desc>Created with sketchtool.</desc>
    <defs>
        <linearGradient x1="41.8930406%" y1="88.6284178%" x2="55.0951729%" y2="11.3698356%" id="linearGradient-1">
            <stop stop-color="#D227B2" offset="0%"></stop>
            <stop stop-color="#DC3299" offset="26%"></stop>
            <stop stop-color="#F64D58" offset="81%"></stop>
            <stop stop-color="#FF5740" offset="100%"></stop>
        </linearGradient>
        <linearGradient x1="37.7334859%" y1="91.8374436%" x2="55.4036917%" y2="9.93834665%" id="linearGradient-2">
            <stop stop-color="#F8435F" offset="0%"></stop>
            <stop stop-color="#FB6048" offset="39%"></stop>
            <stop stop-color="#FF9420" offset="100%"></stop>
        </linearGradient>
        <linearGradient x1="23.1137135%" y1="100.548664%" x2="64.1600772%" y2="4.84590526%" id="linearGradient-3">
            <stop stop-color="#FF9420" offset="0%"></stop>
            <stop stop-color="#FFAD19" offset="39%"></stop>
            <stop stop-color="#FEDD0B" offset="100%"></stop>
        </linearGradient>
        <linearGradient x1="28.4551011%" y1="94.0079548%" x2="56.090644%" y2="8.66858178%" id="linearGradient-4">
            <stop stop-color="#FF6C40" offset="0%"></stop>
            <stop stop-color="#FF8531" offset="32%"></stop>
            <stop stop-color="#FEC60C" offset="99%"></stop>
            <stop stop-color="#FEC70B" offset="100%"></stop>
        </linearGradient>
    </defs>
    <g id="Marketing" stroke="none" stroke-width="1" fill="none" fill-rule="evenodd">
        <g id="Desktop---Add-A-Beat---Marketing-Links" transform="translate(-167.000000, -263.000000)" fill-rule="nonzero">
            <g id="Soundcloud-Copy" transform="translate(104.000000, 235.000000)">
                <g id="Info" transform="translate(20.000000, 28.000000)">
                    <g id="streamy-logo" transform="translate(43.000000, 0.000000)">
                        <path d="M2.34931937,23.9786387 C1.06641561,23.9772529 0.0268919542,22.9373544 0.0259410274,21.6544503 L0.0259410274,2.3539267 C0.022958565,1.73544977 0.266626784,1.14128923 0.703016804,0.703012457 C1.13940682,0.264735685 1.7325106,0.0185064066 2.35099476,0.0188478122 C2.75190302,0.0188478122 3.14589727,0.123272579 3.49403141,0.322094241 L7.11748691,2.40879581 C5.67982113,2.77943847 4.6745206,4.07511706 4.67267016,5.55979058 L4.67267016,21.6544503 C4.67479393,22.2712898 4.43069509,22.8634779 3.99452107,23.299652 C3.55834705,23.735826 2.96615893,23.9799248 2.34931937,23.977801 L2.34931937,23.9786387 Z" id="Path" fill="url(#linearGradient-1)"></path>
                        <path d="M5.48439791,22.5302618 C5.56288622,22.2449559 5.60247626,21.9503552 5.60209424,21.6544503 L5.60209424,5.55979058 C5.60347931,4.27721352 6.64286797,3.23782486 7.92544503,3.23643979 C8.30999689,3.23720277 8.68870668,3.3305872 9.0295288,3.5086911 L12.6948691,5.63225131 C11.2501726,6.00053784 10.241614,7.30492876 10.2487958,8.79581152 L10.2487958,18.4418848 C10.2503668,19.215063 9.86727559,19.9383831 9.22680628,20.3715183 L5.48439791,22.5302618 Z" id="Path" fill="url(#linearGradient-2)"></path>
                        <path d="M16.6366492,16.0892147 C16.7147444,15.8045523 16.7541907,15.5106778 16.7539267,15.2154974 L16.7539267,12 C16.7552663,11.1819436 17.186045,10.4246698 17.8885285,10.0054624 C18.591012,9.58625493 19.4620178,9.56668819 20.1826178,9.9539267 L20.3995812,10.0841885 C21.0303201,10.5229494 21.404639,11.2440926 21.4004894,12.0124188 C21.3962704,12.780745 21.0141191,13.4977685 20.3786387,13.9296335 L16.6366492,16.0892147 Z" id="Path" fill="url(#linearGradient-3)"></path>
                        <path d="M11.0609424,19.3089005 C11.138691,19.0258812 11.178135,18.7337137 11.1782199,18.4402094 L11.1782199,8.79581152 C11.1752099,8.17744567 11.418834,7.58339167 11.8551454,7.14519344 C12.2914569,6.70699522 12.8844541,6.46081007 13.5028272,6.46115148 C13.9037355,6.46115148 14.2977297,6.56557624 14.6458639,6.76439791 L18.2668063,8.85151832 C16.8303745,9.2232159 15.8263945,10.5183517 15.8245026,12.0020942 L15.8245026,15.2175916 C15.8257474,16.0704027 15.3594234,16.8552742 14.6098429,17.2619895 L11.0609424,19.3089005 Z" id="Path" fill="url(#linearGradient-4)"></path>
                    </g>
                </g>
            </g>
        </g>
    </g>
</svg>