<?xml version="1.0" encoding="UTF-8"?>
<svg width="23px" height="19px" viewBox="0 0 23 19" version="1.1" xmlns="http://www.w3.org/2000/svg" xmlns:xlink="http://www.w3.org/1999/xlink">
    <!-- Generator: sketchtool 63.1 (101010) - https://sketch.com -->
    <title>483FCCF5-7B1F-4AAF-BC4B-50A6BBC7D596</title>
    <desc>Created with sketchtool.</desc>
    <defs>
        <linearGradient x1="50%" y1="0%" x2="50%" y2="100%" id="linearGradient-1">
            <stop stop-color="#8ED6F8" offset="0%"></stop>
            <stop stop-color="#55ACEE" offset="100%"></stop>
        </linearGradient>
    </defs>
    <g id="Marketing" stroke="none" stroke-width="1" fill="none" fill-rule="evenodd">
        <g id="Desktop---Add-A-Beat---Marketing-Links" transform="translate(-583.000000, -360.000000)" fill-rule="nonzero">
            <g id="Twitter" transform="translate(520.000000, 330.000000)">
                <g id="Info" transform="translate(63.000000, 30.000000)">
                    <g id="logos-twitter">
                        <g id="Icon" fill="url(#linearGradient-1)">
                            <path d="M23,2.28652344 C22.1536719,2.66180078 21.2442734,2.91542969 20.2897734,3.02953125 C21.2641289,2.44554687 22.0122578,1.52078516 22.3645352,0.418941406 C21.4382932,0.968592272 20.4249043,1.3558563 19.3681562,1.564 C18.5073633,0.646964844 17.2810859,0.0738515625 15.9238164,0.0738515625 C13.3178086,0.0738515625 11.2049531,2.18661719 11.2049531,4.79244531 C11.2049531,5.16233203 11.2467305,5.52242578 11.3271406,5.867875 C7.40546094,5.67102734 3.92850781,3.79248438 1.60110547,0.937609375 C1.19501172,1.63452734 0.962316406,2.4451875 0.962316406,3.30984375 C0.962316406,4.94697656 1.7954375,6.39121484 3.06151563,7.23745312 C2.31217313,7.21398481 1.57931729,7.01159461 0.924132813,6.64717969 C0.923863281,6.66694531 0.923863281,6.68671094 0.923863281,6.70656641 C0.923863281,8.99282031 2.55039453,10.9000234 4.70898047,11.3335195 C4.01411713,11.5224968 3.28525276,11.5501542 2.57806641,11.4143789 C3.17849219,13.2890586 4.92119141,14.6532461 6.98598047,14.6914297 C5.37103906,15.9569687 3.33634766,16.7113867 1.12565234,16.7113867 C0.744714844,16.7113867 0.369167969,16.6890156 1.27675648e-15,16.6454414 C2.08823828,17.984293 4.56855469,18.7654844 7.23332031,18.7654844 C15.9128555,18.7654844 20.6590313,11.5751992 20.6590313,5.33968359 C20.6590313,5.13501953 20.6545391,4.93152344 20.645375,4.72919531 C21.5691769,4.06137284 22.3665257,3.23420862 23,2.28652344" id="Icon-Path"></path>
                        </g>
                        <rect id="ViewBox" x="0" y="0" width="23" height="18.7773438"></rect>
                    </g>
                </g>
            </g>
        </g>
    </g>
</svg>