<?xml version="1.0" encoding="UTF-8"?>
<svg width="24px" height="24px" viewBox="0 0 24 24" version="1.1" xmlns="http://www.w3.org/2000/svg" xmlns:xlink="http://www.w3.org/1999/xlink">
    <!-- Generator: sketchtool 63.1 (101010) - https://sketch.com -->
    <title>6B5C6D29-0B32-461C-8A6D-A5EC6DCAC98A</title>
    <desc>Created with sketchtool.</desc>
    <defs>
        <linearGradient x1="0%" y1="0.0223064909%" x2="100%" y2="99.9776935%" id="linearGradient-1">
            <stop stop-color="#A624D2" offset="0%"></stop>
            <stop stop-color="#CE5353" offset="47.7986524%"></stop>
            <stop stop-color="#FFB02D" offset="100%"></stop>
        </linearGradient>
    </defs>
    <g id="Marketing" stroke="none" stroke-width="1" fill="none" fill-rule="evenodd">
        <g id="Desktop---Add-A-Beat---Marketing-Links" transform="translate(-166.000000, -359.000000)" fill="url(#linearGradient-1)" fill-rule="nonzero">
            <g id="Instagram" transform="translate(104.000000, 330.000000)">
                <g id="Info" transform="translate(62.000000, 29.000000)">
                    <g id="icon-instagram-brands">
                        <path d="M11.5507884,5.64454343 C8.28721604,5.64454343 5.65480624,8.27695323 5.65480624,11.5405256 C5.65480624,14.804098 8.28721604,17.4365078 11.5507884,17.4365078 C14.8143608,17.4365078 17.4467706,14.804098 17.4467706,11.5405256 C17.4467706,8.27695323 14.8143608,5.64454343 11.5507884,5.64454343 Z M11.5507884,15.3736837 C9.44178174,15.3736837 7.71763029,13.6546637 7.71763029,11.5405256 C7.71763029,9.42638753 9.43665033,7.70736748 11.5507884,7.70736748 C13.6649265,7.70736748 15.3839465,9.42638753 15.3839465,11.5405256 C15.3839465,13.6546637 13.6597951,15.3736837 11.5507884,15.3736837 L11.5507884,15.3736837 Z M19.0631626,5.40336748 C19.0631626,6.16794655 18.4473942,6.77858352 17.6879465,6.77858352 C16.9233675,6.77858352 16.3127305,6.16281514 16.3127305,5.40336748 C16.3127305,4.64391982 16.9284989,4.02815145 17.6879465,4.02815145 C18.4473942,4.02815145 19.0631626,4.64391982 19.0631626,5.40336748 Z M22.9681604,6.79910913 C22.8809265,4.95693541 22.4601514,3.32514922 21.1105924,1.9807216 C19.7661648,0.636293987 18.1343786,0.215518931 16.2922049,0.123153675 C14.3935857,0.0153942094 8.70285969,0.0153942094 6.80424053,0.123153675 C4.96719822,0.210387528 3.33541203,0.631162584 1.98585301,1.9755902 C0.636293987,3.32001782 0.220650334,4.95180401 0.128285078,6.79397773 C0.0205256125,8.69259688 0.0205256125,14.3833229 0.128285078,16.2819421 C0.215518931,18.1241158 0.636293987,19.755902 1.98585301,21.1003296 C3.33541203,22.4447572 4.96206682,22.8655323 6.80424053,22.9578976 C8.70285969,23.065657 14.3935857,23.065657 16.2922049,22.9578976 C18.1343786,22.8706637 19.7661648,22.4498886 21.1105924,21.1003296 C22.45502,19.755902 22.8757951,18.1241158 22.9681604,16.2819421 C23.0759198,14.3833229 23.0759198,8.69772829 22.9681604,6.79910913 Z M20.5153497,18.3191091 C20.1151002,19.3248641 19.3402584,20.099706 18.3293719,20.5050869 C16.815608,21.105461 13.2236258,20.9669131 11.5507884,20.9669131 C9.877951,20.9669131 6.28083742,21.1003217 4.7722049,20.5050869 C3.76644989,20.1048374 2.99160802,19.3299955 2.58622717,18.3191091 C1.98585301,16.8053452 2.12440089,13.213363 2.12440089,11.5405256 C2.12440089,9.8676882 1.99098441,6.27057461 2.58622717,4.76194209 C2.98647661,3.75618708 3.76131849,2.98134521 4.7722049,2.57596437 C6.28596882,1.9755902 9.877951,2.11413808 11.5507884,2.11413808 C13.2236258,2.11413808 16.8207394,1.9807216 18.3293719,2.57596437 C19.3351269,2.97621381 20.1099688,3.75105568 20.5153497,4.76194209 C21.1157238,6.27570601 20.9771759,9.8676882 20.9771759,11.5405256 C20.9771759,13.213363 21.1157238,16.8104766 20.5153497,18.3191091 Z" id="Shape"></path>
                    </g>
                </g>
            </g>
        </g>
    </g>
</svg>