<?xml version="1.0" encoding="UTF-8"?>
<svg width="29px" height="14px" viewBox="0 0 29 14" version="1.1" xmlns="http://www.w3.org/2000/svg" xmlns:xlink="http://www.w3.org/1999/xlink">
    <!-- Generator: sketchtool 63.1 (101010) - https://sketch.com -->
    <title>FF3B920F-8A5D-4416-8026-3DD12F13F28A</title>
    <desc>Created with sketchtool.</desc>
    <g id="Marketing" stroke="none" stroke-width="1" fill="none" fill-rule="evenodd">
        <g id="Desktop---Add-A-Beat---Marketing-Links" transform="translate(-579.000000, -266.000000)" fill-rule="nonzero">
            <g id="Soundcloud" transform="translate(520.000000, 235.000000)">
                <g id="Info" transform="translate(20.000000, 24.000000)">
                    <g id="entypo-social-soundcloud" transform="translate(39.000000, 0.000000)">
                        <g>
                            <g id="Icon" transform="translate(0.000000, 7.273016)" fill="#FF8801">
                                <path d="M0.9744,11.6567341 L1.45,9.62528413 L0.9744,7.52713413 C0.96135,7.46478413 0.841,7.41693413 0.69745,7.41693413 C0.54955,7.41693413 0.43065,7.46478413 0.4205,7.52713413 L0,9.62528413 L0.41905,11.6552841 C0.43065,11.7205341 0.54955,11.7655182 0.696,11.7655182 C0.841,11.7669341 0.96135,11.7219841 0.9744,11.6567341 L0.9744,11.6567341 Z M3.94835,12.7833841 L4.35,9.64558413 L3.94835,4.79098413 C3.9353,4.66918413 3.78305,4.57058413 3.6018,4.57058413 C3.41765,4.57058413 3.26395,4.66918413 3.2567,4.79098413 L2.9,9.64558413 L3.2567,12.7833841 C3.2654,12.9080841 3.41765,13.0037841 3.6018,13.0037841 C3.78305,13.0037841 3.9353,12.9080841 3.94835,12.7833841 L3.94835,12.7833841 Z M6.9136,12.7326341 L7.25,9.64848413 L6.9136,3.18583413 C6.9049,3.03213413 6.72655,2.91323413 6.5047,2.91323413 C6.2843,2.91323413 6.10595,3.03213413 6.09725,3.18583413 L5.8,9.64848413 L6.09725,12.7355341 C6.10595,12.8848841 6.2843,13.0052341 6.5047,13.0052341 C6.72655,13.0037841 6.9049,12.8848841 6.9136,12.7326341 L6.9136,12.7326341 Z M9.8745,12.6876841 L10.15,9.64848413 L9.8745,3.13798413 C9.86725,2.95963413 9.6628,2.81753413 9.4105,2.81753413 C9.1553,2.81753413 8.9523,2.95963413 8.94505,3.13798413 L8.7,9.64848413 L8.9465,12.6876841 C8.9523,12.8660341 9.15675,13.0081341 9.4105,13.0081341 C9.6628,13.0066841 9.86725,12.8689341 9.8745,12.6876841 Z M12.8325,12.6470841 L13.05,9.65138413 L12.8325,2.18533413 C12.8267,1.97943413 12.5947,1.81558413 12.3134,1.81558413 C12.0321,1.81558413 11.8001,1.98233413 11.79575,2.18678413 L11.6,9.64848413 L11.79575,12.6470841 C11.8001,12.8515341 12.0321,13.0182841 12.3134,13.0182841 C12.5947,13.0182841 12.8267,12.8544341 12.8325,12.6470841 L12.8325,12.6470841 Z M14.90165,13.0211841 L25.2619,13.0269841 C27.3267,13.0269841 29,11.4073341 29,9.41068413 C29,7.41403413 27.3267,5.79728413 25.2619,5.79728413 C24.75005,5.79728413 24.26285,5.89878413 23.8177,6.07713413 C23.52045,2.82043413 20.69585,0.265534127 17.25065,0.265534127 C16.4349541,0.267052326 15.6259572,0.412848488 14.86105,0.696184127 C14.57685,0.803484127 14.5029,0.910784127 14.5,1.12393413 L14.5,12.5934341 C14.507039,12.8168279 14.6791408,13.0001132 14.90165,13.0211841 L14.90165,13.0211841 Z" id="Icon-Shape"></path>
                            </g>
                            <rect id="ViewBox" x="0" y="0" width="29" height="29"></rect>
                        </g>
                    </g>
                </g>
            </g>
        </g>
    </g>
</svg>