<?xml version="1.0" encoding="UTF-8"?>
<svg width="19px" height="19px" viewBox="0 0 19 19" version="1.1" xmlns="http://www.w3.org/2000/svg" xmlns:xlink="http://www.w3.org/1999/xlink">
    <!-- Generator: sketchtool 63.1 (101010) - https://sketch.com -->
    <title>D4DF0CB9-B71B-4F56-9BD0-091BA26B02B2</title>
    <desc>Created with sketchtool.</desc>
    <g id="April-8-2020" stroke="none" stroke-width="1" fill="none" fill-rule="evenodd">
        <g id="Edit-Video-Information---Schedule" transform="translate(-272.000000, -622.000000)" fill-rule="nonzero">
            <g id="Modal">
                <g id="Start-Time" transform="translate(20.000000, 587.000000)">
                    <g id="Field-Copy" transform="translate(139.000000, 23.000000)">
                        <g id="ic-sharp-schedule" transform="translate(112.000000, 11.000000)">
                            <g id="Icon" transform="translate(1.000000, 1.000000)" fill="#000000">
                                <path d="M9.49125,0.75 C4.66125,0.75 0.75,4.67 0.75,9.5 C0.75,14.33 4.66125,18.25 9.49125,18.25 C14.33,18.25 18.25,14.33 18.25,9.5 C18.25,4.67 14.33,0.75 9.49125,0.75 Z M9.5,16.5 C5.6325,16.5 2.5,13.3675 2.5,9.5 C2.5,5.6325 5.6325,2.5 9.5,2.5 C13.3675,2.5 16.5,5.6325 16.5,9.5 C16.5,13.3675 13.3675,16.5 9.5,16.5 Z M9.9375,5.125 L8.625,5.125 L8.625,10.375 L13.21875,13.13125 L13.875,12.055 L9.9375,9.71875 L9.9375,5.125 Z" id="Icon-Shape"></path>
                            </g>
                            <rect id="ViewBox" x="0" y="0" width="21" height="21"></rect>
                        </g>
                    </g>
                </g>
            </g>
        </g>
    </g>
</svg>