<?xml version="1.0" encoding="UTF-8"?>
<svg width="35px" height="35px" viewBox="0 0 35 35" version="1.1" xmlns="http://www.w3.org/2000/svg" xmlns:xlink="http://www.w3.org/1999/xlink">
    <!-- Generator: sketchtool 63.1 (101010) - https://sketch.com -->
    <title>0CB125C3-22A3-4711-B217-82B8E4A90EF1</title>
    <desc>Created with sketchtool.</desc>
    <g id="FINAL-Copy" stroke="none" stroke-width="1" fill="none" fill-rule="evenodd">
        <g id="Desktop---Manage-Links---Edit---V3" transform="translate(-191.000000, -444.000000)">
            <g id="Link-1---Open" transform="translate(168.000000, 245.000000)">
                <g id="Buttons" transform="translate(18.000000, 184.000000)">
                    <g id="icon-delete-circle" transform="translate(5.000000, 15.000000)">
                        <rect id="Rectangle-Copy" fill="#FFFFFF" x="0" y="0" width="35" height="35" rx="17.5"></rect>
                        <g id="bx-bxs-trash-alt" transform="translate(8.000000, 8.000000)" fill-rule="nonzero">
                            <g id="Icon" fill="#000000">
                                <path d="M4.8,5.6 L4,5.6 L4,16 C4,16.8836556 4.7163444,17.6 5.6,17.6 L13.6,17.6 C14.4836556,17.6 15.2,16.8836556 15.2,16 L15.2,5.6 L4.8,5.6 Z M13.2944,3.2 L12,1.6 L7.2,1.6 L5.9056,3.2 L2.4,3.2 L2.4,4.8 L16.8,4.8 L16.8,3.2 L13.2944,3.2 Z" id="Icon-Shape"></path>
                            </g>
                            <rect id="ViewBox" x="0" y="0" width="19.2" height="19.2"></rect>
                        </g>
                    </g>
                </g>
            </g>
        </g>
    </g>
</svg>