<?xml version="1.0" encoding="UTF-8"?>
<svg width="50px" height="50px" viewBox="0 0 50 50" version="1.1" xmlns="http://www.w3.org/2000/svg" xmlns:xlink="http://www.w3.org/1999/xlink">
    <!-- Generator: sketchtool 63.1 (101010) - https://sketch.com -->
    <title>8B7838F4-C7FD-42D9-988E-C20D8AD15749</title>
    <desc>Created with sketchtool.</desc>
    <g id="FINAL-Copy" stroke="none" stroke-width="1" fill="none" fill-rule="evenodd">
        <g id="Desktop---Manage-Links---V3" transform="translate(-854.000000, -381.000000)">
            <g id="Link-2" transform="translate(168.000000, 357.000000)">
                <g id="icon-edit-link-copy" transform="translate(686.000000, 24.000000)">
                    <rect id="Rectangle-Copy" fill="#FFFFFF" x="0" y="0" width="50" height="50" rx="25"></rect>
                    <g id="bx-bxs-trash-alt" transform="translate(13.000000, 13.000000)" fill-rule="nonzero">
                        <g id="Icon" fill="#000000">
                            <path d="M6,7 L5,7 L5,20 C5,21.1045695 5.8954305,22 7,22 L17,22 C18.1045695,22 19,21.1045695 19,20 L19,7 L6,7 Z M16.618,4 L15,2 L9,2 L7.382,4 L3,4 L3,6 L21,6 L21,4 L16.618,4 Z" id="Icon-Shape"></path>
                        </g>
                        <rect id="ViewBox" x="0" y="0" width="24" height="24"></rect>
                    </g>
                </g>
            </g>
        </g>
    </g>
</svg>