<?xml version="1.0" encoding="UTF-8"?>
<svg width="18px" height="24px" viewBox="0 0 18 24" version="1.1" xmlns="http://www.w3.org/2000/svg" xmlns:xlink="http://www.w3.org/1999/xlink">
    <!-- Generator: sketchtool 63.1 (101010) - https://sketch.com -->
    <title>124E85A9-158B-4503-A9B0-47F3EAFE164C</title>
    <desc>Created with sketchtool.</desc>
    <g id="Page-2" stroke="none" stroke-width="1" fill="none" fill-rule="evenodd">
        <g id="Sound-Kit---Upload-Zip---Complete" transform="translate(-208.000000, -883.000000)" fill="#000000" fill-rule="nonzero">
            <g id="Sound-Kit-Zip-File" transform="translate(168.000000, 806.000000)">
                <g id="Box" transform="translate(20.000000, 54.000000)">
                    <g id="file-archive-solid" transform="translate(20.000000, 23.000000)">
                        <path d="M17.671875,4.921875 L13.0828125,0.328125 C12.871875,0.1171875 12.5859375,0 12.2859375,0 L12,0 L12,6 L18,6 L18,5.7140625 C18,5.41875 17.8828125,5.1328125 17.671875,4.921875 Z M6.01875,15.75 C5.1796875,15.75 4.5,16.3171875 4.5,17.015625 C4.5,17.71875 5.184375,18.28125 6.0234375,18.28125 C6.8625,18.28125 7.5421875,17.7140625 7.5421875,17.015625 C7.5421875,16.3171875 6.8578125,15.75 6.01875,15.75 Z M10.5,6.375 L10.5,0 L7.51875,0 L7.51875,1.5 L6.01875,1.5 L6.01875,0 L1.125,0 C0.5015625,0 0,0.5015625 0,1.125 L0,22.875 C0,23.4984375 0.5015625,24 1.125,24 L16.875,24 C17.4984375,24 18,23.4984375 18,22.875 L18,7.5 L11.625,7.5 C11.00625,7.5 10.5,6.99375 10.5,6.375 Z M4.4953125,1.5 L5.9953125,1.5 L5.9953125,3 L4.4953125,3 L4.4953125,1.5 Z M6.009375,19.5 C4.453125,19.5 3.290625,18.075 3.6,16.5515625 L4.51875,12 L4.51875,10.5 L6.01875,10.5 L6.01875,9 L4.51875,9 L4.51875,7.5 L6.01875,7.5 L6.01875,6 L4.51875,6 L4.51875,4.5 L6.01875,4.5 L6.01875,3 L7.51875,3 L7.51875,4.5 L6.01875,4.5 L6.01875,6 L7.51875,6 L7.51875,7.5 L6.01875,7.5 L6.01875,9 L7.51875,9 L7.51875,10.5 L6.01875,10.5 L6.01875,12 L7.0546875,12 C7.321875,12 7.55625,12.1921875 7.6078125,12.4546875 L8.41875,16.565625 C8.71875,18.084375 7.55625,19.5 6.009375,19.5 L6.009375,19.5 Z" id="Shape"></path>
                    </g>
                </g>
            </g>
        </g>
    </g>
</svg>