<?xml version="1.0" encoding="UTF-8"?>
<svg width="30px" height="34px" viewBox="0 0 30 34" version="1.1" xmlns="http://www.w3.org/2000/svg" xmlns:xlink="http://www.w3.org/1999/xlink">
    <!-- Generator: sketchtool 63.1 (101010) - https://sketch.com -->
    <title>FE4AA092-D925-4CC3-9E5A-98F77FE9FE7E</title>
    <desc>Created with sketchtool.</desc>
    <defs>
        <linearGradient x1="41.8930406%" y1="88.6284178%" x2="55.0951729%" y2="11.3698356%" id="linearGradient-1">
            <stop stop-color="#D227B2" offset="0%"></stop>
            <stop stop-color="#DC3299" offset="26%"></stop>
            <stop stop-color="#F64D58" offset="81%"></stop>
            <stop stop-color="#FF5740" offset="100%"></stop>
        </linearGradient>
        <linearGradient x1="37.7334859%" y1="91.8374436%" x2="55.4036917%" y2="9.93834665%" id="linearGradient-2">
            <stop stop-color="#F8435F" offset="0%"></stop>
            <stop stop-color="#FB6048" offset="39%"></stop>
            <stop stop-color="#FF9420" offset="100%"></stop>
        </linearGradient>
        <linearGradient x1="23.1137135%" y1="100.548664%" x2="64.1600772%" y2="4.84590526%" id="linearGradient-3">
            <stop stop-color="#FF9420" offset="0%"></stop>
            <stop stop-color="#FFAD19" offset="39%"></stop>
            <stop stop-color="#FEDD0B" offset="100%"></stop>
        </linearGradient>
        <linearGradient x1="28.4551011%" y1="94.0079548%" x2="56.090644%" y2="8.66858178%" id="linearGradient-4">
            <stop stop-color="#FF6C40" offset="0%"></stop>
            <stop stop-color="#FF8531" offset="32%"></stop>
            <stop stop-color="#FEC60C" offset="99%"></stop>
            <stop stop-color="#FEC70B" offset="100%"></stop>
        </linearGradient>
    </defs>
    <g id="Splash" stroke="none" stroke-width="1" fill="none" fill-rule="evenodd">
        <g id="Splash---Coming-Soon" transform="translate(-20.000000, -17.000000)" fill-rule="nonzero">
            <g id="Top-Nav">
                <g id="Left-Items" transform="translate(20.000000, 17.000000)">
                    <g id="streamy-logo">
                        <path d="M3.29295499,33.6099804 C1.49475573,33.6080379 0.0376934681,32.1504503 0.0363605888,30.3522505 L0.0363605888,3.29941292 C0.0321801803,2.43251643 0.373721006,1.59970335 0.985392927,0.985386834 C1.59706485,0.371070321 2.42839671,0.0259397529 3.29530333,0.0264182887 C3.85724175,0.0264182887 4.40948908,0.172786663 4.89745597,0.45146771 L9.97632094,3.37632094 C7.96119743,3.89583719 6.55210446,5.71194246 6.54951076,7.79295499 L6.54951076,30.3522505 C6.55248758,31.2168519 6.21034316,32.0469003 5.598974,32.6582695 C4.98760484,33.2696387 4.15755642,33.6117831 3.29295499,33.6088063 L3.29295499,33.6099804 Z" id="Path" fill="url(#linearGradient-1)"></path>
                        <path d="M7.68727984,31.5798434 C7.79729404,31.1799406 7.85278595,30.7670096 7.85225049,30.3522505 L7.85225049,7.79295499 C7.8541919,5.99521367 9.31106494,4.53834062 11.1088063,4.53639922 C11.6478185,4.53746866 12.1786422,4.6683622 12.6563601,4.91800391 L17.7939335,7.89452055 C15.7689552,8.4107343 14.3552956,10.2390513 14.365362,12.3287671 L14.365362,25.8493151 C14.367564,26.9330507 13.8305991,27.946902 12.9328767,28.5540117 L7.68727984,31.5798434 Z" id="Path" fill="url(#linearGradient-2)"></path>
                        <path d="M23.3189824,22.5516634 C23.4284456,22.1526625 23.483736,21.7407495 23.4833659,21.3270059 L23.4833659,16.8199609 C23.4852436,15.6733212 24.0890503,14.6118782 25.0736958,14.0242905 C26.0583412,13.4367027 27.2791982,13.4092767 28.2892368,13.9520548 L28.5933464,14.134638 C29.47743,14.749633 30.0020992,15.7604331 29.9962829,16.8373679 C29.9903692,17.9143026 29.4547218,18.9193281 28.5639922,19.5246575 L23.3189824,22.5516634 Z" id="Path" fill="url(#linearGradient-3)"></path>
                        <path d="M15.5037182,27.0645793 C15.6126955,26.6678814 15.6679828,26.258361 15.6681018,25.8469667 L15.6681018,12.3287671 C15.6638827,11.4620263 16.0053617,10.6293626 16.6169235,10.0151562 C17.2284853,9.40094976 18.0596679,9.05588104 18.9264188,9.05635958 C19.4883572,9.05635958 20.0406045,9.20272795 20.5285714,9.481409 L25.6039139,12.4068493 C23.59052,12.9278442 22.1832781,14.7431887 22.1806262,16.8228963 L22.1806262,21.3299413 C22.182371,22.5252954 21.5287418,23.625421 20.4780822,24.195499 L15.5037182,27.0645793 Z" id="Path" fill="url(#linearGradient-4)"></path>
                    </g>
                </g>
            </g>
        </g>
    </g>
</svg>